<svg xmlns="http://www.w3.org/2000/svg" width="100" height="100" fill="none"><path fill="#B98740" d="M68.973 62.104c-5.278 4.99-10.448 10.11-15.68 15.155-.03.03-.06.03-.09 0l-6.314-6.522c-.025-.026-.025-.052 0-.077 5.632-5.456 11.265-10.909 16.9-16.357 2.887-2.792-1.255-7.943-4.74-6.26-.293.141-.652.417-1.076.826-2.008 1.934-4.01 3.874-6.006 5.818-1.52 1.48-2.69 2.642-4.045 3.696-2.26 1.755-5.103 2.85-7.968 2.882-5.312.059-9.893-3.749-12.139-8.352-2.604-5.34-.397-10.738 3.579-14.61a5913.17 5913.17 0 0 1 15.752-15.28c.033-.031.065-.03.097.002l6.315 6.52c.026.026.025.052-.001.077a66950.47 66950.47 0 0 1-16.43 15.91c-.264.255-.477.595-.638 1.018-1.12 2.928 1.561 5.995 4.576 5.222.971-.249 1.502-.813 2.388-1.668 2.346-2.265 4.688-4.534 7.027-6.808 2.278-2.217 4.87-4.137 8.026-4.845 5.567-1.247 10.218 2.021 13.362 6.302 4.565 6.218 2.182 12.553-2.895 17.35Z"/><path fill="#EE1923" d="m40.415 44.024 2.282.087a.123.123 0 0 0 .101-.043l16.239-18.094a.15.15 0 0 1 .115-.05h6.67c.041 0 .062.02.061.063l-.103 4.184a.125.125 0 0 0 .076.118c.016.007.032.01.049.01 2.672-.017 5.27.412 7.794 1.287 8.757 3.037 12.409 11.605 11.01 20.425a27.514 27.514 0 0 1-10.403 17.49.136.136 0 0 1-.091.028l-6.751-.28a.02.02 0 0 1-.014-.004.02.02 0 0 1-.004-.027.02.02 0 0 1 .011-.01c5.791-2.485 10.071-7.314 11.959-13.316 2.537-8.07-.14-16.994-8.257-20.593-4.451-1.974-9.423-2.213-14.206-1.635a.175.175 0 0 0-.1.047L44.313 45.45a.209.209 0 0 0-.062.11l-.525 2.492c-.008.04-.032.058-.072.056l-3.777-.177c-.04-.001-.058-.022-.052-.062l.514-3.783c.006-.043.031-.065.075-.063Z"/><path fill="#EE1923" d="M35.155 70.02c-1.883-.07-3.69-.222-5.619-.661-11.62-2.652-15.64-13.784-12.517-24.374 1.653-5.605 4.98-10.65 9.689-14.205a.126.126 0 0 1 .086-.027l6.672.278c.107.005.111.028.014.071-4.46 1.956-7.864 5.075-10.215 9.358-2.773 5.054-3.598 11.463-1.186 16.832 3.892 8.662 13.561 10.362 21.977 9.322a.171.171 0 0 0 .098-.045l12.53-11.728a.238.238 0 0 0 .07-.123l.52-2.474c.01-.045.038-.067.084-.065l3.74.173c.053.002.076.03.069.083l-.514 3.786a.056.056 0 0 1-.059.05l-2.296-.106a.114.114 0 0 0-.093.04l-16.256 18.12a.097.097 0 0 1-.077.035h-6.717a.038.038 0 0 1-.035-.024.038.038 0 0 1-.002-.015l.1-4.234c0-.043-.02-.066-.063-.067Z"/></svg>