<?xml version="1.0" standalone="no"?>
<!DOCTYPE svg PUBLIC "-//W3C//DTD SVG 20010904//EN"
 "http://www.w3.org/TR/2001/REC-SVG-20010904/DTD/svg10.dtd">
<svg version="1.0" xmlns="http://www.w3.org/2000/svg"
 width="700.000000pt" height="700.000000pt" viewBox="0 0 700.000000 700.000000"
 preserveAspectRatio="xMidYMid meet">
<metadata>
Created by potrace 1.14, written by Peter Selinger 2001-2017
</metadata>
<g transform="translate(0.000000,700.000000) scale(0.100000,-0.100000)"
fill="#000000" stroke="none">
<path d="M3090 5839 c-63 -61 -218 -211 -343 -333 -126 -121 -273 -264 -327
-316 -336 -325 -629 -612 -671 -655 -367 -386 -476 -822 -304 -1225 174 -408
559 -727 950 -787 95 -14 311 -7 377 13 9 3 25 7 35 9 66 16 97 26 166 54 99
39 200 98 297 171 103 79 165 136 589 549 420 410 412 403 529 407 126 5 234
-54 330 -181 18 -23 52 -103 60 -140 25 -114 -9 -199 -119 -305 -26 -25 -159
-154 -295 -286 -137 -133 -279 -271 -317 -307 -82 -79 -468 -452 -700 -678
l-171 -166 126 -129 c69 -71 156 -160 193 -199 36 -38 110 -114 162 -167 l96
-98 101 99 c56 55 142 139 191 186 50 48 214 208 365 355 288 281 333 324 599
578 251 240 307 299 396 422 68 95 137 225 174 327 26 69 36 110 56 218 11 56
5 213 -10 293 -34 176 -105 323 -240 497 -273 351 -605 539 -950 539 -122 0
-187 -12 -320 -56 -111 -37 -206 -84 -310 -153 -133 -89 -179 -130 -519 -459
-142 -138 -280 -271 -305 -295 -25 -24 -85 -81 -133 -127 -48 -46 -102 -90
-119 -99 -176 -92 -379 -21 -470 163 -30 61 -33 75 -32 152 1 120 20 159 136
273 80 79 459 447 651 632 35 33 173 166 307 297 134 130 293 283 353 341
l110 106 -111 113 c-62 62 -139 142 -173 178 -73 77 -291 300 -293 300 -1 0
-54 -50 -117 -111z"/>
<path d="M4260 5670 c-8 -9 -51 -56 -95 -106 -44 -49 -98 -109 -121 -134 -23
-25 -67 -74 -99 -110 -100 -112 -132 -147 -391 -436 -54 -60 -130 -145 -169
-189 -38 -43 -81 -90 -94 -104 -13 -14 -51 -57 -85 -95 -33 -37 -70 -78 -81
-90 -11 -12 -51 -58 -90 -101 -38 -43 -77 -85 -86 -94 -8 -9 -43 -48 -77 -87
l-62 -71 -109 4 -109 4 -7 -48 c-8 -55 -12 -88 -20 -155 -3 -26 -9 -68 -14
-93 -5 -25 -5 -48 0 -51 7 -4 169 -14 303 -18 l40 -1 25 118 c26 116 27 118
76 163 28 26 104 97 170 159 66 62 136 127 155 145 19 18 94 87 165 155 155
146 171 161 310 290 121 113 148 138 226 212 60 57 64 59 217 69 178 13 522 6
575 -11 6 -2 30 -6 52 -9 187 -23 413 -96 593 -192 118 -62 168 -96 266 -184
69 -62 121 -119 188 -208 74 -98 181 -310 202 -402 2 -8 11 -40 20 -70 51
-181 66 -491 31 -671 -3 -13 -9 -49 -15 -79 -5 -30 -15 -71 -21 -90 -5 -19
-12 -42 -14 -50 -8 -38 -50 -153 -85 -235 -180 -422 -499 -759 -910 -964 -46
-23 -86 -43 -88 -45 -1 -2 39 -5 90 -6 51 -1 120 -3 153 -5 33 -2 129 -6 212
-10 l153 -6 47 38 c369 296 657 716 801 1163 126 395 148 753 68 1126 -12 58
-52 179 -87 261 -166 401 -485 691 -914 832 -194 63 -400 99 -607 105 -31 0
-60 4 -64 8 -6 7 -6 89 1 268 1 47 1 92 -1 101 -4 15 -35 17 -307 16 -266 0
-304 -2 -317 -17z"/>
<path d="M1343 5233 c-12 -10 -48 -40 -81 -66 -79 -65 -244 -235 -322 -333
-100 -124 -215 -306 -274 -429 -13 -27 -35 -75 -49 -105 -75 -158 -157 -424
-182 -585 -22 -146 -27 -204 -29 -316 -12 -663 283 -1195 813 -1467 103 -53
280 -122 351 -136 14 -3 57 -12 96 -20 119 -26 238 -40 439 -50 19 -1 20 -8
20 -196 l0 -195 304 0 304 -1 166 186 c91 102 170 190 176 196 8 9 90 99 160
178 11 12 54 60 95 106 41 46 93 104 115 129 22 24 47 52 55 61 27 29 166 184
196 219 16 18 40 46 54 60 14 14 61 67 105 116 44 50 82 92 85 95 3 3 25 28
50 55 25 28 83 92 129 143 l83 92 104 -5 c56 -2 105 -1 108 3 2 4 7 32 11 62
4 30 9 64 10 75 15 109 19 145 19 174 l1 33 -70 4 c-285 13 -265 14 -274 -9
-4 -12 -16 -65 -26 -117 -13 -66 -25 -100 -40 -115 -33 -32 -287 -269 -320
-299 -16 -15 -59 -55 -95 -89 -36 -34 -126 -118 -199 -187 -74 -69 -146 -136
-161 -150 -313 -296 -340 -320 -364 -321 -12 0 -30 -2 -41 -4 -85 -16 -412
-23 -542 -11 -341 32 -622 116 -838 251 -22 14 -50 30 -62 37 -13 6 -23 15
-23 20 0 4 -5 8 -12 8 -13 0 -133 105 -197 173 -168 178 -304 461 -347 717
-23 136 -25 387 -4 515 54 334 177 624 376 891 64 85 235 264 319 332 75 62
234 162 342 217 l108 54 -45 2 c-25 0 -72 2 -105 4 -33 1 -152 6 -265 10 -191
6 -207 6 -227 -12z"/>
</g>
</svg>
